<?xml version="1.0" standalone="no"?>
<!DOCTYPE svg PUBLIC "-//W3C//DTD SVG 20010904//EN"
 "http://www.w3.org/TR/2001/REC-SVG-20010904/DTD/svg10.dtd">
<svg version="1.0" xmlns="http://www.w3.org/2000/svg"
 width="700.000000pt" height="700.000000pt" viewBox="0 0 700.000000 700.000000"
 preserveAspectRatio="xMidYMid meet">
<metadata>
Created by potrace 1.14, written by Peter Selinger 2001-2017
</metadata>
<g transform="translate(0.000000,700.000000) scale(0.100000,-0.100000)"
fill="#000000" stroke="none">
<path d="M2453 5372 l-1033 -517 0 -519 c0 -410 3 -517 13 -513 6 3 473 224
1036 492 l1024 487 46 -20 c25 -11 478 -226 1006 -477 528 -251 975 -463 993
-471 l32 -14 0 520 0 520 -1030 515 c-566 283 -1036 515 -1042 514 -7 0 -478
-233 -1045 -517z"/>
<path d="M1420 2667 l0 -512 1038 -519 1037 -518 1038 518 1037 519 0 512 c0
282 -3 513 -7 513 -4 0 -468 -219 -1031 -487 -564 -267 -1030 -486 -1036 -486
-7 0 -473 219 -1036 486 -564 268 -1028 487 -1032 487 -5 0 -8 -231 -8 -513z"/>
</g>
</svg>
