<?xml version="1.0" encoding="UTF-8" standalone="no"?>
<!DOCTYPE svg PUBLIC "-//W3C//DTD SVG 1.1//EN" "http://www.w3.org/Graphics/SVG/1.1/DTD/svg11.dtd">
<svg width="100%" height="100%" viewBox="0 0 1800 155" version="1.1" xmlns="http://www.w3.org/2000/svg" xmlns:xlink="http://www.w3.org/1999/xlink" xml:space="preserve" xmlns:serif="http://www.serif.com/" style="fill-rule:evenodd;clip-rule:evenodd;stroke-linecap:round;stroke-miterlimit:1.5;">
    <g transform="matrix(3.76262,0,0,3.76262,-1190.48,-976.718)">
        <text x="365.235px" y="298.639px" style="font-family:'Poppins-Bold', 'Poppins';font-weight:700;font-size:52.362px;fill:rgb(51,51,51);">FUNDS TRACKER</text>
    </g>
    <g transform="matrix(0.118083,0,0,0.118083,82.95,77.55)">
        <g transform="matrix(1,0,0,1,-600,-600)">
            <g transform="matrix(0.987538,0,0,0.987538,-32.0242,-32.0242)">
                <circle cx="640" cy="640" r="602.509" style="fill:rgb(51,51,51);"/>
            </g>
            <g transform="matrix(0.793491,0,0,0.793491,600,600)">
                <g transform="matrix(1,0,0,1,-488.5,-555.5)">
                    <g transform="matrix(1,0,0,1,-147.056,-67.3771)">
                        <g transform="matrix(1.11698,0,0,1.11698,-35.0255,-159.384)">
                            <path d="M200,640L200,440L600,240L1000,440L1000,640L600,450L200,640Z" style="fill:none;stroke:black;stroke-opacity:0;stroke-width:41.03px;"/>
                            <path d="M200,640L200,440L600,240L1000,440L1000,640L600,450L200,640Z" style="fill:rgb(63,140,255);"/>
                        </g>
                        <g transform="matrix(1.11698,0,0,-1.11698,-35.0255,1404.38)">
                            <path d="M200,640L200,440L600,240L1000,440L1000,640L600,450L200,640Z" style="fill:none;stroke:black;stroke-opacity:0;stroke-width:41.03px;"/>
                            <path d="M200,640L200,440L600,240L1000,440L1000,640L600,450L200,640Z" style="fill:rgb(125,202,199);"/>
                        </g>
                    </g>
                </g>
            </g>
        </g>
    </g>
</svg>
