<?xml version="1.0" encoding="UTF-8" standalone="no"?>
<!DOCTYPE svg PUBLIC "-//W3C//DTD SVG 1.1//EN" "http://www.w3.org/Graphics/SVG/1.1/DTD/svg11.dtd">
<svg width="100%" height="100%" viewBox="0 0 1800 200" version="1.1" xmlns="http://www.w3.org/2000/svg" xmlns:xlink="http://www.w3.org/1999/xlink" xml:space="preserve" xmlns:serif="http://www.serif.com/" style="fill-rule:evenodd;clip-rule:evenodd;stroke-linecap:round;stroke-miterlimit:1.5;">
    <g transform="matrix(3.59191,0,0,3.59191,-1084.71,-906.386)">
        <text x="365.235px" y="298.639px" style="font-family:'Poppins-Bold', 'Poppins';font-weight:700;font-size:52.362px;fill:rgb(250,251,252);">FUNDS TRACKER</text>
    </g>
    <g transform="matrix(0.127881,0,0,0.127881,100.789,100)">
        <g transform="matrix(1,0,0,1,-580.5,-580.5)">
            <clipPath id="_clip1">
                <rect x="0" y="0" width="1161" height="1161"/>
            </clipPath>
            <g clip-path="url(#_clip1)">
                <g transform="matrix(1,0,0,1,-59.938,-59.938)">
                    <g transform="matrix(0.962745,0,0,0.962745,23.8433,23.8433)">
                        <circle cx="640" cy="640" r="602.509" style="fill:rgb(250,251,252);"/>
                    </g>
                    <g transform="matrix(0.771642,0,0,0.771642,149.578,159.362)">
                        <g>
                            <g>
                                <g transform="matrix(1.11698,0,0,1.11698,-35.0255,-159.384)">
                                    <path d="M200,640L200,440L600,240L1000,440L1000,640L600,450L200,640Z" style="fill:none;stroke:black;stroke-opacity:0;stroke-width:41.03px;"/>
                                    <path d="M200,640L200,440L600,240L1000,440L1000,640L600,450L200,640Z" style="fill:rgb(63,140,255);"/>
                                </g>
                                <g transform="matrix(1.11698,0,0,-1.11698,-35.0255,1404.38)">
                                    <path d="M200,640L200,440L600,240L1000,440L1000,640L600,450L200,640Z" style="fill:none;stroke:black;stroke-opacity:0;stroke-width:41.03px;"/>
                                    <path d="M200,640L200,440L600,240L1000,440L1000,640L600,450L200,640Z" style="fill:rgb(125,202,199);"/>
                                </g>
                            </g>
                        </g>
                    </g>
                </g>
            </g>
        </g>
    </g>
</svg>
