<svg xmlns="http://www.w3.org/2000/svg" xml:space="preserve" style="fill-rule:evenodd;clip-rule:evenodd;stroke-linecap:round;stroke-miterlimit:1.5" viewBox="0 0 1800 155"><path d="M392.411 261.881v7.174h-14.976v7.749h11.206v6.964h-11.206v14.871h-8.953v-36.758zM405.92 261.881v21.992q0 3.299 1.623 5.079 1.624 1.78 4.765 1.78 3.142 0 4.818-1.78t1.675-5.079v-21.992h8.954v21.94q0 4.922-2.095 8.325-2.094 3.404-5.628 5.132-3.536 1.728-7.881 1.728t-7.776-1.702q-3.429-1.702-5.419-5.132t-1.99-8.351v-21.94zM466.921 298.639h-8.953l-14.976-22.672v22.672h-8.954v-36.758h8.954l14.976 22.778v-22.778h8.953zM487.185 261.881q5.813 0 10.158 2.304 4.347 2.304 6.729 6.467t2.382 9.608q0 5.394-2.382 9.582-2.382 4.19-6.755 6.493t-10.132 2.304h-13.771v-36.758zm-.576 29.009q5.08 0 7.907-2.776t2.827-7.854q0-5.079-2.827-7.906t-7.907-2.828h-4.241v21.364zM524.781 299.006q-4.032 0-7.226-1.309-3.194-1.31-5.105-3.875t-2.016-6.179h9.53q.209 2.043 1.413 3.116t3.142 1.073q1.99 0 3.142-.916 1.152-.917 1.152-2.54 0-1.361-.917-2.251-.916-.89-2.251-1.466t-3.796-1.31q-3.56-1.1-5.813-2.199-2.251-1.1-3.874-3.246t-1.623-5.603q0-5.132 3.717-8.037 3.719-2.906 9.687-2.906 6.073 0 9.792 2.906 3.717 2.906 3.979 8.09h-9.687q-.105-1.78-1.309-2.802-1.204-1.02-3.089-1.021-1.623 0-2.618.864t-.995 2.487q0 1.78 1.676 2.775 1.675.996 5.236 2.147 3.56 1.205 5.786 2.304 2.225 1.1 3.848 3.194 1.623 2.095 1.623 5.394 0 3.14-1.597 5.707-1.596 2.565-4.634 4.084-3.036 1.518-7.173 1.519M581.227 261.881v7.174h-9.74v29.584h-8.953v-29.584h-9.74v-7.174zM604.475 298.639l-7.645-13.876h-2.146v13.876h-8.954v-36.758h15.027q4.347 0 7.41 1.519t4.581 4.162q1.52 2.645 1.519 5.891 0 3.666-2.069 6.545t-6.1 4.085l8.483 14.556zm-9.791-20.211h5.55q2.461 0 3.691-1.205 1.231-1.204 1.231-3.403 0-2.095-1.231-3.299-1.23-1.204-3.691-1.204h-5.55zM642.751 292.146h-13.718l-2.199 6.493h-9.373l13.3-36.758h10.367l13.3 36.758h-9.477zm-2.303-6.911-4.556-13.457-4.503 13.457zM656.941 280.208q0-5.446 2.357-9.713 2.356-4.268 6.571-6.65t9.556-2.383q6.546 0 11.205 3.456 4.66 3.456 6.231 9.425h-9.843q-1.1-2.304-3.116-3.508t-4.582-1.204q-4.135 0-6.702 2.88-2.566 2.88-2.566 7.697t2.566 7.697 6.702 2.88q2.566 0 4.582-1.204 2.015-1.205 3.116-3.509h9.843q-1.57 5.97-6.231 9.399-4.659 3.43-11.205 3.43-5.341 0-9.556-2.383t-6.571-6.623q-2.357-4.242-2.357-9.687M719.671 298.639l-12.358-16.232v16.232h-8.954v-36.758h8.954v16.128l12.253-16.128h10.525l-14.243 18.013 14.766 18.745zM743.809 269.055v7.435H755.8v6.912h-11.991v8.064h13.562v7.173h-22.516v-36.758h22.516v7.174zM781.928 298.639l-7.644-13.876h-2.147v13.876h-8.954v-36.758h15.028q4.346 0 7.409 1.519t4.582 4.162q1.518 2.645 1.518 5.891 0 3.666-2.068 6.545t-6.1 4.085l8.482 14.556zm-9.791-20.211h5.55q2.461 0 3.692-1.205 1.23-1.204 1.23-3.403 0-2.095-1.23-3.299-1.231-1.204-3.692-1.204h-5.55z" style="fill:#fafbfc;fill-rule:nonzero" transform="translate(-1190.48 -976.718)scale(3.76262)"/><circle cx="640" cy="640" r="602.509" style="fill:#fafbfc" transform="matrix(.11657 0 0 .11657 8.396 2.892)"/><path d="M200 640V440l400-200 400 200v200L600 450z" style="fill:none;stroke:#000;stroke-opacity:0;stroke-width:41.03px" transform="matrix(.10463 0 0 .10463 20.191 4.227)"/><path d="M200 640V440l400-200 400 200v200L600 450z" style="fill:hsl(142.1 70.6% 45.3%)" transform="matrix(.10463 0 0 .10463 20.191 4.227)"/><path d="M200 640V440l400-200 400 200v200L600 450z" style="fill:none;stroke:#000;stroke-opacity:0;stroke-width:41.03px" transform="matrix(.10463 0 0 -.10463 20.191 150.702)"/><path d="M200 640V440l400-200 400 200v200L600 450z" style="fill:hsl(346.8 77.2% 49.8%)" transform="matrix(.10463 0 0 -.10463 20.191 150.702)"/></svg>