<svg xmlns="http://www.w3.org/2000/svg" xml:space="preserve" style="fill-rule:evenodd;clip-rule:evenodd;stroke-linecap:round;stroke-miterlimit:1.5" viewBox="0 0 1200 300"><circle cx="640" cy="640" r="602.509" style="fill:hsl(0 0% 100%)" transform="matrix(.237 0 0 .237 -2.663 -1.686)"/><path d="M200 640V440l400-200 400 200v200L600 450z" style="fill:none;stroke:#000;stroke-opacity:0;stroke-width:41.03px" transform="matrix(.21272 0 0 .21272 21.319 1.028)"/><path d="M200 640V440l400-200 400 200v200L600 450z" style="fill:hsl(142.1 70.6% 45.3%)" transform="matrix(.21272 0 0 .21272 21.319 1.028)"/><path d="M200 640V440l400-200 400 200v200L600 450z" style="fill:none;stroke:#000;stroke-opacity:0;stroke-width:41.03px" transform="matrix(.21272 0 0 -.21272 21.319 298.828)"/><path d="M200 640V440l400-200 400 200v200L600 450z" style="fill:hsl(346.8 77.2% 49.8%)" transform="matrix(.21272 0 0 -.21272 21.319 298.828)"/><path d="M392.411 261.881v7.174h-14.976v7.749h11.206v6.964h-11.206v14.871h-8.953v-36.758zM405.92 261.881v21.992q0 3.299 1.623 5.079 1.624 1.78 4.765 1.78 3.142 0 4.818-1.78t1.675-5.079v-21.992h8.954v21.94q0 4.922-2.095 8.325-2.094 3.404-5.628 5.132-3.536 1.728-7.881 1.728t-7.776-1.702q-3.429-1.702-5.419-5.132t-1.99-8.351v-21.94zM466.921 298.639h-8.953l-14.976-22.672v22.672h-8.954v-36.758h8.954l14.976 22.778v-22.778h8.953zM487.185 261.881q5.813 0 10.158 2.304 4.347 2.304 6.729 6.467t2.382 9.608q0 5.394-2.382 9.582-2.382 4.19-6.755 6.493t-10.132 2.304h-13.771v-36.758zm-.576 29.009q5.08 0 7.907-2.776t2.827-7.854q0-5.079-2.827-7.906t-7.907-2.828h-4.241v21.364zM524.781 299.006q-4.032 0-7.226-1.309-3.194-1.31-5.105-3.875t-2.016-6.179h9.53q.209 2.043 1.413 3.116t3.142 1.073q1.99 0 3.142-.916 1.152-.917 1.152-2.54 0-1.361-.917-2.251-.916-.89-2.251-1.466t-3.796-1.31q-3.56-1.1-5.813-2.199-2.251-1.1-3.874-3.246t-1.623-5.603q0-5.132 3.717-8.037 3.719-2.906 9.687-2.906 6.073 0 9.792 2.906 3.717 2.906 3.979 8.09h-9.687q-.105-1.78-1.309-2.802-1.204-1.02-3.089-1.021-1.623 0-2.618.864t-.995 2.487q0 1.78 1.676 2.775 1.675.996 5.236 2.147 3.56 1.205 5.786 2.304 2.225 1.1 3.848 3.194 1.623 2.095 1.623 5.394 0 3.14-1.597 5.707-1.596 2.565-4.634 4.084-3.036 1.518-7.173 1.519" style="fill:#fafbfc;fill-rule:nonzero" transform="translate(-987.85 -931.707)scale(3.59191)"/><path d="M394.924 303.771v7.173h-9.739v29.584h-8.954v-29.584h-9.739v-7.173zM418.173 340.528l-7.645-13.875h-2.147v13.875h-8.954v-36.757h15.028q4.346 0 7.409 1.518t4.582 4.163q1.518 2.644 1.518 5.89 0 3.666-2.068 6.546t-6.1 4.084l8.483 14.556zm-9.792-20.211h5.55q2.462 0 3.692-1.205 1.23-1.204 1.23-3.403 0-2.094-1.23-3.299-1.23-1.204-3.692-1.204h-5.55zM456.449 334.035H442.73l-2.199 6.493h-9.373l13.3-36.757h10.368l13.3 36.757h-9.478zm-2.304-6.911-4.555-13.457-4.503 13.457zM470.639 322.097q0-5.445 2.356-9.713 2.357-4.268 6.572-6.65t9.556-2.382q6.545 0 11.205 3.455t6.231 9.426h-9.844q-1.1-2.304-3.115-3.509-2.017-1.204-4.582-1.204-4.137 0-6.702 2.88t-2.566 7.697 2.566 7.697q2.565 2.88 6.702 2.88 2.565 0 4.582-1.204 2.016-1.205 3.115-3.508h9.844q-1.57 5.969-6.231 9.398-4.66 3.43-11.205 3.43-5.341 0-9.556-2.382-4.215-2.384-6.572-6.624-2.356-4.242-2.356-9.687M533.368 340.528l-12.357-16.232v16.232h-8.954v-36.757h8.954v16.127l12.252-16.127h10.525l-14.242 18.012 14.766 18.745zM557.507 310.944v7.435h11.991v6.912h-11.991v8.064h13.561v7.173h-22.515v-36.757h22.515v7.173zM595.626 340.528l-7.645-13.875h-2.147v13.875h-8.953v-36.757h15.027q4.346 0 7.41 1.518t4.581 4.163q1.52 2.644 1.519 5.89 0 3.666-2.069 6.546-2.067 2.88-6.1 4.084l8.483 14.556zm-9.792-20.211h5.551q2.46 0 3.691-1.205 1.231-1.204 1.231-3.403 0-2.094-1.231-3.299-1.23-1.204-3.691-1.204h-5.551z" style="fill:#fafbfc;fill-rule:nonzero" transform="translate(-981.226 -931.155)scale(3.59191)"/></svg>