<svg xmlns="http://www.w3.org/2000/svg" xml:space="preserve" style="fill-rule:evenodd;clip-rule:evenodd;stroke-linecap:round;stroke-miterlimit:1.5" viewBox="0 0 1200 1200"><circle cx="640" cy="640" r="602.509" style="fill:hsl(0 0% 100%)" transform="matrix(.98754 0 0 .98754 -32.024 -32.024)"/><path d="M200 640V440l400-200 400 200v200L600 450z" style="fill:none;stroke:#000;stroke-opacity:0;stroke-width:41.03px" transform="matrix(.88631 0 0 .88631 67.9 -20.717)"/><path d="M200 640V440l400-200 400 200v200L600 450z" style="fill:hsl(142.1 70.6% 45.3%)" transform="matrix(.88631 0 0 .88631 67.9 -20.717)"/><path d="M200 640V440l400-200 400 200v200L600 450z" style="fill:none;stroke:#000;stroke-opacity:0;stroke-width:41.03px" transform="matrix(.88631 0 0 -.88631 67.9 1220.116)"/><path d="M200 640V440l400-200 400 200v200L600 450z" style="fill:hsl(346.8 77.2% 49.8%)" transform="matrix(.88631 0 0 -.88631 67.9 1220.116)"/></svg>