<svg xmlns="http://www.w3.org/2000/svg" xml:space="preserve" style="fill-rule:evenodd;clip-rule:evenodd;stroke-linecap:round;stroke-linejoin:round;stroke-miterlimit:1.5" viewBox="0 0 980 580"><circle cx="497.845" cy="473.359" r="6.033" fill="none" style="fill:#ebebeb;fill-opacity:0;stroke:#98a1a8;stroke-width:12px" transform="translate(-48.3005 -251.02)"/><circle cx="497.845" cy="473.359" r="6.033" fill="none" style="fill:#ebebeb;fill-opacity:0;stroke:#98a1a8;stroke-width:12px" transform="translate(56.2809 -293.166)"/><path d="M84.963 271.177c0-4.415 3.585-8 8-8 4.416 0 8 3.585 8 8V760.1c0 4.415-3.584 8-8 8-4.415 0-8-3.585-8-8V271.177Z" style="fill:#98a1a8" transform="translate(-50 -250)"/><path d="M91.991 769.072c-4.415 0-8-3.585-8-8 0-4.416 3.585-8 8-8h920.499c4.41 0 8 3.584 8 8 0 4.415-3.59 8-8 8H91.991Z" style="fill:#98a1a8" transform="translate(-48.6163 -248.616)"/><path d="M863.546 763.988c0-4.416 3.585-8 8-8s8 3.584 8 8v24.3c0 4.415-3.585 8-8 8s-8-3.585-8-8v-24.3Z" style="fill:#98a1a8" transform="translate(-52.7674 -251.532)"/><path d="M863.546 763.988c0-4.416 3.585-8 8-8s8 3.584 8 8v24.3c0 4.415-3.585 8-8 8s-8-3.585-8-8v-24.3Z" style="fill:#98a1a8" transform="translate(92.3257 -251.532)"/><path d="M863.546 763.988c0-4.416 3.585-8 8-8s8 3.584 8 8v24.3c0 4.415-3.585 8-8 8s-8-3.585-8-8v-24.3Z" style="fill:#98a1a8" transform="translate(-193.215 -251.532)"/><path d="M863.546 763.988c0-4.416 3.585-8 8-8s8 3.584 8 8v24.3c0 4.415-3.585 8-8 8s-8-3.585-8-8v-24.3Z" style="fill:#98a1a8" transform="translate(-335.046 -251.532)"/><path d="M863.546 763.988c0-4.416 3.585-8 8-8s8 3.584 8 8v24.3c0 4.415-3.585 8-8 8s-8-3.585-8-8v-24.3Z" style="fill:#98a1a8" transform="translate(-475.494 -251.532)"/><path d="M863.546 763.988c0-4.416 3.585-8 8-8s8 3.584 8 8v24.3c0 4.415-3.585 8-8 8s-8-3.585-8-8v-24.3Z" style="fill:#98a1a8" transform="translate(-618.017 -251.532)"/><path d="M863.546 763.988c0-4.416 3.585-8 8-8s8 3.584 8 8v24.3c0 4.415-3.585 8-8 8s-8-3.585-8-8v-24.3Z" style="fill:#98a1a8" transform="translate(-759.156 -251.532)"/><path d="M863.546 763.988c0-4.416 3.585-8 8-8s8 3.584 8 8v24.3c0 4.415-3.585 8-8 8s-8-3.585-8-8v-24.3Z" style="fill:#98a1a8" transform="rotate(90 620.1125 186.8385)"/><path d="M863.546 763.988c0-4.416 3.585-8 8-8s8 3.584 8 8v24.3c0 4.415-3.585 8-8 8s-8-3.585-8-8v-24.3Z" style="fill:#98a1a8" transform="rotate(90 671.656 135.295)"/><path d="M863.546 763.988c0-4.416 3.585-8 8-8s8 3.584 8 8v24.3c0 4.415-3.585 8-8 8s-8-3.585-8-8v-24.3Z" style="fill:#98a1a8" transform="rotate(90 724.2375 82.7135)"/><path d="M863.546 763.988c0-4.416 3.585-8 8-8s8 3.584 8 8v24.3c0 4.415-3.585 8-8 8s-8-3.585-8-8v-24.3Z" style="fill:#98a1a8" transform="rotate(90 775.435 31.516)"/><path d="M863.546 763.988c0-4.416 3.585-8 8-8s8 3.584 8 8v24.3c0 4.415-3.585 8-8 8s-8-3.585-8-8v-24.3Z" style="fill:#98a1a8" transform="rotate(90 828.66 -21.709)"/><path d="M548.088 521.588c-5.56 0-10.074-3.584-10.074-8 0-4.415 4.514-8 10.074-8h60.518c5.56 0 10.074 3.585 10.074 8 0 4.416-4.514 8-10.074 8h-60.518Z" style="fill:#98a1a8" transform="matrix(.744542 -.276066 .347657 .937622 -83.5928 -67.9407)"/><circle cx="661.849" cy="607.565" r="154.494" fill="none" style="fill:#ebebeb;fill-opacity:0;stroke:#98a1a8;stroke-width:18.27px" transform="translate(-56.7664 -287.953) scale(.875706)"/><path d="M194.596 381.548c-4.415 0-8 3.584-8 8 0 4.415 3.585 8 8 8h95.477c4.415 0 8-3.585 8-8 0-4.416-3.585-8-8-8h-95.477Z" style="fill:#98a1a8" transform="matrix(-1 0 0 1 1106.11 -246.951)"/><path d="M194.596 381.548c-4.415 0-8 3.584-8 8 0 4.415 3.585 8 8 8h95.477c4.415 0 8-3.585 8-8 0-4.416-3.585-8-8-8h-95.477Z" style="fill:#98a1a8" transform="matrix(-1 0 0 1 942.658 -6.357)"/><path d="M297.381 389.548c0-4.416-3.585-8-8-8s-8 3.584-8 8v240.075c0 4.415 3.585 8 8 8s8-3.585 8-8V389.548Z" style="fill:#98a1a8" transform="scale(-1 1) rotate(-15.54059 -1132.32302327 4307.82124767)"/><circle cx="311.348" cy="368.965" r="21.967" style="fill:#dee1e3;stroke:#98a1a8;stroke-width:13.49px" transform="matrix(-.889764 0 0 .889764 1094.2737 -182.4085)"/><circle cx="311.348" cy="368.965" r="21.967" style="fill:#dee1e3;stroke:#98a1a8;stroke-width:13.49px" transform="matrix(-.889764 0 0 .889764 1187.6747 -182.4085)"/><circle cx="311.348" cy="368.965" r="21.967" style="fill:#dee1e3;stroke:#98a1a8;stroke-width:13.49px" transform="matrix(-.889764 0 0 .889764 1025.0877 54.899)"/><circle cx="311.348" cy="368.965" r="21.967" style="fill:#dee1e3;stroke:#98a1a8;stroke-width:13.49px" transform="matrix(-.889764 0 0 .889764 937.084 54.899)"/><path d="M194.596 397.548c-4.415 0-8-3.585-8-8 0-4.416 3.585-8 8-8h95.477c4.415 0 8 3.584 8 8 0 4.415-3.585 8-8 8h-95.477Z" style="fill:#98a1a8" transform="translate(-49.4561 -249.956)"/><path d="M194.596 397.548c-4.415 0-8-3.585-8-8 0-4.416 3.585-8 8-8h95.477c4.415 0 8 3.584 8 8 0 4.415-3.585 8-8 8h-95.477Z" style="fill:#98a1a8" transform="translate(113.9959 -9.362)"/><path d="M281.381 389.548c0-4.416 3.585-8 8-8s8 3.584 8 8v240.075c0 4.415-3.585 8-8 8s-8-3.585-8-8V389.548Z" style="fill:#98a1a8" transform="rotate(-15.54057 -615.00695848 434.51077222)"/><circle cx="311.348" cy="368.965" r="21.967" style="fill:#dee1e3;stroke:#98a1a8;stroke-width:13.49px" transform="translate(-37.6198 -185.4135) scale(.889764)"/><circle cx="311.348" cy="368.965" r="21.967" style="fill:#dee1e3;stroke:#98a1a8;stroke-width:13.49px" transform="translate(-131.0208 -185.4135) scale(.889764)"/><circle cx="311.348" cy="368.965" r="21.967" style="fill:#dee1e3;stroke:#98a1a8;stroke-width:13.49px" transform="translate(31.5662 51.894) scale(.889764)"/><circle cx="311.348" cy="368.965" r="21.967" style="fill:#dee1e3;stroke:#98a1a8;stroke-width:13.49px" transform="translate(119.5699 51.894) scale(.889764)"/></svg>