<svg width="136" height="148" viewBox="0 0 136 148" fill="none" xmlns="http://www.w3.org/2000/svg">
<path d="M123.959 34.6417H107.189C105.605 34.6417 104.322 35.9252 104.322 37.5085C104.322 39.0918 105.605 40.3753 107.189 40.3753H123.959C127.437 40.3753 130.266 43.2045 130.266 46.6822V79.3983C130.266 83.1449 127.218 86.1932 123.472 86.1932H120.519V65.0297C120.519 58.3905 115.118 52.9892 108.479 52.9892H66.1936V44.2454C66.1936 42.6621 64.9102 41.3787 63.3269 41.3787C61.7435 41.3787 60.4601 42.6621 60.4601 44.2454V52.9892H12.728C9.25031 52.9892 6.42108 50.1599 6.42108 46.6822C6.42108 43.2045 9.25031 40.3753 12.728 40.3753H31.6981C33.2815 40.3753 34.5649 39.0918 34.5649 37.5085C34.5649 35.9252 33.2815 34.6417 31.6981 34.6417H12.728C6.08882 34.6417 0.6875 40.043 0.6875 46.6822C0.6875 46.8413 0.69352 46.9993 0.69954 47.157C0.693234 47.2361 0.6875 47.3152 0.6875 47.3958V135.553C0.6875 142.192 6.08882 147.593 12.728 147.593L123.959 147.59C130.599 147.59 136 142.188 136 135.549V46.6822C136 40.0433 130.599 34.6417 123.959 34.6417ZM114.786 135.553C114.786 138.986 112.028 141.785 108.611 141.856H108.479C108.456 141.856 108.435 141.859 108.412 141.86H12.728C9.25031 141.86 6.42108 139.03 6.42108 135.553V56.9336C8.25669 58.0668 10.4168 58.7227 12.728 58.7227H108.479C111.957 58.7227 114.786 61.552 114.786 65.0297V86.1932H88.9846C79.1839 86.1932 71.2105 94.1666 71.2105 103.967C71.2105 113.768 79.1839 121.741 88.9846 121.741H114.786V135.553ZM130.266 135.55C130.266 139.027 127.437 141.856 123.959 141.856H118.732C119.864 140.022 120.519 137.863 120.519 135.553V121.742H122.239C125.233 121.742 128.005 120.778 130.266 119.147V135.55ZM130.266 107.981C130.266 112.407 126.665 116.008 122.239 116.008H88.9846C82.3454 116.008 76.9441 110.607 76.9441 103.968C76.9441 97.3284 82.3454 91.927 88.9846 91.927H123.472C125.975 91.927 128.308 91.186 130.266 89.916V107.981Z" fill="white"/>
<path d="M83.5377 19.4959C76.1104 19.4959 70.0681 25.5382 70.0681 32.9655C70.0681 40.3928 76.1107 46.4351 83.5377 46.4351C90.965 46.4351 97.0073 40.3928 97.0073 32.9655C97.0073 25.5382 90.965 19.4959 83.5377 19.4959ZM83.5377 40.7015C79.2719 40.7015 75.8017 37.2313 75.8017 32.9655C75.8017 28.6997 79.2722 25.2294 83.5377 25.2294C87.8032 25.2294 91.2738 28.6997 91.2738 32.9655C91.2738 37.2313 87.8035 40.7015 83.5377 40.7015Z" fill="white"/>
<path d="M55.7299 0.813568C48.3026 0.813568 42.2603 6.8559 42.2603 14.2832C42.2603 21.7105 48.3029 27.7528 55.7299 27.7528C63.1571 27.7528 69.1995 21.7105 69.1995 14.2832C69.1995 6.8559 63.1571 0.813568 55.7299 0.813568ZM55.7299 22.0192C51.4641 22.0192 47.9938 18.549 47.9938 14.2832C47.9938 10.0174 51.4644 6.54715 55.7299 6.54715C59.9954 6.54715 63.4659 10.0174 63.4659 14.2832C63.4659 18.549 59.9957 22.0192 55.7299 22.0192Z" fill="white"/>
<path d="M104.658 5.58935H103.032V3.96274C103.032 2.37941 101.748 1.09595 100.165 1.09595C98.5817 1.09595 97.2983 2.37941 97.2983 3.96274V5.58935H95.6717C94.0883 5.58935 92.8049 6.87282 92.8049 8.45614C92.8049 10.0395 94.0883 11.3229 95.6717 11.3229H97.2983V12.9498C97.2983 14.5332 98.5817 15.8166 100.165 15.8166C101.748 15.8166 103.032 14.5332 103.032 12.9498V11.3229H104.658C106.242 11.3229 107.525 10.0395 107.525 8.45614C107.525 6.87282 106.242 5.58935 104.658 5.58935Z" fill="#314BCE"/>
<path d="M46.4607 28.8364C44.8773 28.8364 43.5939 30.1202 43.5939 31.7032V43.3137C43.5939 44.8971 44.8773 46.1805 46.4607 46.1805C48.044 46.1805 49.3275 44.8971 49.3275 43.3137V31.7032C49.3275 30.1199 48.044 28.8364 46.4607 28.8364Z" fill="white"/>
<path d="M92.7545 102.298C92.2184 101.765 91.4816 101.458 90.7248 101.458C89.9708 101.458 89.234 101.765 88.6979 102.298C88.1647 102.831 87.8608 103.571 87.8608 104.325C87.8608 105.079 88.1647 105.819 88.6979 106.352C89.234 106.888 89.9708 107.192 90.7248 107.192C91.4816 107.192 92.2184 106.888 92.7545 106.352C93.2877 105.819 93.5944 105.079 93.5944 104.325C93.5944 103.571 93.2877 102.831 92.7545 102.298Z" fill="#314BCE"/>
<path d="M19.7041 75.3501C18.1207 75.3501 16.8373 76.6339 16.8373 78.2169V101.82C16.8373 103.403 18.1207 104.687 19.7041 104.687C21.2874 104.687 22.5709 103.403 22.5709 101.82V78.2169C22.5709 76.6339 21.2874 75.3501 19.7041 75.3501Z" fill="#314BCE"/>
<path d="M21.7298 109.686C21.1966 109.153 20.4598 108.846 19.703 108.846C18.949 108.846 18.2094 109.152 17.6762 109.686C17.1429 110.219 16.8362 110.958 16.8362 111.712C16.8362 112.466 17.1429 113.206 17.6762 113.739C18.2094 114.272 18.949 114.579 19.703 114.579C20.4598 114.579 21.1966 114.273 21.7298 113.739C22.2659 113.206 22.5698 112.466 22.5698 111.712C22.5698 110.958 22.2659 110.219 21.7298 109.686Z" fill="#314BCE"/>
</svg>
