<svg width="301" height="126" viewBox="0 0 301 126" version="1.1">
  <defs>
    <linearGradient id="balance" x1="0" y1="0" x2="0" y2="1">
      <stop offset="5%" stop-color="#98a1a8" stop-opacity="0.6"/>
      <stop offset="95%" stop-color="#98a1a8" stop-opacity="0"/>
    </linearGradient>
  </defs>
  <g>
    <g>
      <path fill-opacity="#98a1a8" fill="url(#balance)" stroke-width="2px" width="291" height="116" type="monotone" stroke="none" d="M5,121C13.818181818181818,111.33333333333333,22.636363636363633,101.66666666666667,31.454545454545453,101.66666666666667C40.27272727272727,101.66666666666667,49.090909090909086,101.66666666666667,57.90909090909091,101.66666666666667C66.72727272727272,101.66666666666667,75.54545454545455,101.66666666666667,84.36363636363636,101.66666666666667C93.18181818181817,101.66666666666667,102,90.3888888888889,110.81818181818181,82.33333333333334C119.63636363636363,74.27777777777779,128.45454545454544,53.33333333333333,137.27272727272725,53.33333333333333C146.09090909090907,53.33333333333333,154.9090909090909,53.33333333333333,163.72727272727272,53.33333333333333C172.54545454545453,53.33333333333333,181.36363636363637,53.33333333333333,190.1818181818182,53.33333333333333C199,53.33333333333333,207.8181818181818,53.33333333333333,216.63636363636363,53.33333333333333C225.45454545454544,53.33333333333333,234.27272727272725,46.88888888888889,243.09090909090907,43.66666666666667C251.90909090909088,40.44444444444445,260.7272727272727,34,269.5454545454545,34C278.3636363636363,34,287.1818181818182,34,296,34L296,121C287.1818181818182,121,278.3636363636363,121,269.5454545454545,121C260.7272727272727,121,251.90909090909088,121,243.09090909090907,121C234.27272727272725,121,225.45454545454544,121,216.63636363636363,121C207.8181818181818,121,199,121,190.1818181818182,121C181.36363636363637,121,172.54545454545453,121,163.72727272727272,121C154.9090909090909,121,146.09090909090907,121,137.27272727272725,121C128.45454545454544,121,119.63636363636363,121,110.81818181818181,121C102,121,93.18181818181817,121,84.36363636363636,121C75.54545454545455,121,66.72727272727272,121,57.90909090909091,121C49.090909090909086,121,40.27272727272727,121,31.454545454545453,121C22.636363636363633,121,13.818181818181818,121,5,121Z"/>
      <path type="monotone" stroke="#98a1a8" fill-opacity="#98a1a8" fill="none" stroke-width="2px" width="291" height="116" d="M5,121C13.818181818181818,111.33333333333333,22.636363636363633,101.66666666666667,31.454545454545453,101.66666666666667C40.27272727272727,101.66666666666667,49.090909090909086,101.66666666666667,57.90909090909091,101.66666666666667C66.72727272727272,101.66666666666667,75.54545454545455,101.66666666666667,84.36363636363636,101.66666666666667C93.18181818181817,101.66666666666667,102,90.3888888888889,110.81818181818181,82.33333333333334C119.63636363636363,74.27777777777779,128.45454545454544,53.33333333333333,137.27272727272725,53.33333333333333C146.09090909090907,53.33333333333333,154.9090909090909,53.33333333333333,163.72727272727272,53.33333333333333C172.54545454545453,53.33333333333333,181.36363636363637,53.33333333333333,190.1818181818182,53.33333333333333C199,53.33333333333333,207.8181818181818,53.33333333333333,216.63636363636363,53.33333333333333C225.45454545454544,53.33333333333333,234.27272727272725,46.88888888888889,243.09090909090907,43.66666666666667C251.90909090909088,40.44444444444445,260.7272727272727,34,269.5454545454545,34C278.3636363636363,34,287.1818181818182,34,296,34"/>
    </g>
  </g>
</svg>
